Coordinates
version=1
nRows=9
nColumns=63
inDegrees=yes

Units are S.I. units (second, meters, Newtons, ...)
If the header above contains a line with 'inDegrees', this indicates whether rotational values are in degrees (yes) or radians (no).

endheader
time	pelvis_tilt	pelvis_list	pelvis_rotation	pelvis_tx	pelvis_ty	pelvis_tz	hip_flexion_r	hip_adduction_r	hip_rotation_r	knee_angle_r	knee_angle_r_beta	ankle_angle_r	subtalar_angle_r	mtp_angle_r	hip_flexion_l	hip_adduction_l	hip_rotation_l	knee_angle_l	knee_angle_l_beta	ankle_angle_l	subtalar_angle_l	mtp_angle_l	L5_S1_Flex_Ext	L5_S1_Lat_Bending	L5_S1_axial_rotation	L4_L5_Flex_Ext	L4_L5_Lat_Bending	L4_L5_axial_rotation	L3_L4_Flex_Ext	L3_L4_Lat_Bending	L3_L4_axial_rotation	L2_L3_Flex_Ext	L2_L3_Lat_Bending	L2_L3_axial_rotation	L1_L2_Flex_Ext	L1_L2_Lat_Bending	L1_L2_axial_rotation	L1_T12_Flex_Ext	L1_T12_Lat_Bending	L1_T12_axial_rotation	Abs_r3	Abs_r2	Abs_r1	Abs_t1	Abs_t2	neck_flexion	neck_bending	neck_rotation	arm_flex_r	arm_add_r	arm_rot_r	elbow_flex_r	pro_sup_r	wrist_flex_r	wrist_dev_r	arm_flex_l	arm_add_l	arm_rot_l	elbow_flex_l	pro_sup_l	wrist_flex_l	wrist_dev_l
      6.03703704	     -3.17038358	     -8.00622577	     81.05421130	      0.24488953	      0.48374389	      0.87947595	     -3.10357915	      1.63837218	      0.26934084	      0.93882950	      0.01638567	     19.64427844	     -6.68844212	      0.00000000	     -0.34191789	     -0.32078482	     -2.40163004	      7.43766273	      0.12981170	     24.10711499	      3.66062950	      0.00000000	     -0.25414417	      0.21399258	     -2.58762895	     -0.47197114	      0.28461013	     -2.74935575	     -0.41753346	      0.52030156	     -2.74935575	     -0.29046137	      0.52030156	     -2.26417533	     -0.23599828	      0.43637367	     -2.10244852	     -0.14521798	      0.33147451	     -1.94072171	     -1.81532639	      2.42072687	    -14.39161591	      0.00000000	      0.00000000	     18.27102041	      1.34844431	      5.57733817	     -5.60360443	    -11.08053706	    -13.70536544	    104.15562961	     63.28307449	    -12.11123878	     16.43888946	     -1.27078970	    -17.05209307	     36.99510959	     70.86644315	     88.53854029	      1.62954660	      6.85383396
      6.05555556	     -2.97447930	     -8.16104071	     80.70339181	      0.24453284	      0.48419283	      0.88010148	     -2.80475024	      1.78090522	      0.16599229	      1.05557653	      0.01842329	     19.87139763	     -5.87592932	      0.00000000	     -0.21685224	     -0.48376066	     -2.50648782	      7.26267843	      0.12675765	     24.22028327	      3.41566990	      0.00000000	     -0.24386881	      0.24969731	     -2.49146910	     -0.45288877	      0.33209742	     -2.64718592	     -0.40065207	      0.60711403	     -2.64718592	     -0.27871767	      0.60711403	     -2.18003547	     -0.22645658	      0.50918275	     -2.02431865	     -0.13934664	      0.38678113	     -1.86860183	     -1.74193054	      2.82462588	    -13.85680372	      0.00000000	      0.00000000	     18.60903397	      1.18096848	      5.80839995	     -7.03000494	    -13.24624880	    -10.92329474	    102.31010768	     66.11019862	    -11.27276267	     13.93117748	     -1.09929049	    -16.29376121	     36.53446144	     69.35407533	     88.37534062	      1.65166590	      6.66771693
      6.07407407	     -2.95687242	     -8.24215657	     80.49891713	      0.24424207	      0.48450768	      0.88091112	     -2.51355053	      1.73440911	     -0.97822367	      1.31406388	      0.02293474	     20.31619566	     -3.96074997	      0.00000000	     -0.09300350	     -0.45672162	     -2.36898875	      7.15862732	      0.12494162	     24.25471676	      3.01283754	      0.00000000	     -0.24241106	      0.26292228	     -2.46149128	     -0.45018158	      0.34968664	     -2.61533448	     -0.39825713	      0.63926924	     -2.61533448	     -0.27705160	      0.63926924	     -2.15380487	     -0.22510291	      0.53615112	     -1.99996166	     -0.13851368	      0.40726662	     -1.84611846	     -1.73151797	      2.97422945	    -13.69007603	      0.00000000	      0.00000000	     18.87491383	      1.29619248	      6.39397057	     -7.90201734	    -15.23702510	     -6.38054427	    100.47910450	     73.10019370	    -12.09087191	     11.40780450	     -1.43636147	    -15.60677335	     35.10958794	     68.12743032	     88.17936649	      2.60391993	      7.17468358
      6.09259259	     -2.80592185	     -8.37660596	     80.17597877	      0.24403880	      0.48466765	      0.88202311	     -2.13328093	      1.84036001	     -1.41279556	      1.67331958	      0.02920494	     20.41601839	     -3.01390517	      0.00000000	      0.09480677	     -0.58450638	     -2.40679978	      7.16880661	      0.12511928	     24.30547778	      2.60643233	      0.00000000	     -0.24261443	      0.29502218	     -2.41211755	     -0.45055925	      0.39237950	     -2.56287490	     -0.39859124	      0.71731693	     -2.56287490	     -0.27728403	      0.71731693	     -2.11060286	     -0.22529176	      0.60160923	     -1.95984551	     -0.13862988	      0.45698936	     -1.80908816	     -1.73297060	      3.33734992	    -13.41547418	      0.00000000	      0.00000000	     19.09414258	      1.14166108	      6.82015384	     -7.82966752	    -17.29019401	     -0.92315690	     97.64082214	     78.18343323	    -11.59043021	      8.37155102	     -1.85791157	    -14.90123186	     33.60056660	     66.98686870	     87.93148147	      3.33717263	      8.04204569
      6.11111111	     -2.66273385	     -8.49995688	     79.80924632	      0.24397486	      0.48472781	      0.88343650	     -1.69998408	      1.95713047	     -1.36827776	      2.12933562	      0.03716392	     20.30206834	     -2.80344041	      0.00000000	      0.30734666	     -0.71787440	     -2.49289007	      7.28327751	      0.12711717	     24.30903187	      2.18121464	      0.00000000	     -0.24713847	      0.32507782	     -2.36019989	     -0.45896085	      0.43235350	     -2.50771238	     -0.40602379	      0.79039421	     -2.50771238	     -0.28245456	      0.79039421	     -2.06517490	     -0.22949278	      0.66289869	     -1.91766241	     -0.14121492	      0.50354554	     -1.77014992	     -1.76528537	      3.67734533	    -13.12672373	      0.00000000	      0.00000000	     19.27500003	      0.95497253	      7.14364033	     -6.77905534	    -19.13635013	      5.04219139	     93.52824173	     84.06631331	    -11.04881176	      5.18987765	     -2.22134794	    -14.36526296	     32.25461275	     65.96915603	     87.86177400	      3.93430227	      8.93219300
      6.12962963	     -2.46116740	     -8.64523457	     79.40599565	      0.24396058	      0.48469191	      0.88485626	     -1.24706785	      2.14960512	     -0.95711301	      2.58876936	      0.04518255	     20.11453612	     -2.99777459	      0.00000000	      0.52941853	     -0.92027631	     -2.66112269	      7.43271356	      0.12972532	     24.30322490	      1.74650555	      0.00000000	     -0.24868153	      0.36264255	     -2.30234404	     -0.46182647	      0.48231460	     -2.44624054	     -0.40855889	      0.88172910	     -2.44624054	     -0.28421812	      0.88172910	     -2.01455104	     -0.23092567	      0.73950069	     -1.87065453	     -0.14209663	      0.56173332	     -1.72675803	     -1.77630731	      4.10228509	    -12.80494685	      0.00000000	      0.00000000	     19.46880757	      0.53949405	      7.27328805	     -4.99386580	    -20.89426875	     11.52771803	     88.09888571	     87.87545288	    -10.42141652	      1.79910320	     -2.43545679	    -14.00724355	     31.30943468	     65.07797276	     88.04822107	      4.07591576	      9.66704938
      6.14814815	     -2.27302439	     -8.67719653	     79.14369966	      0.24402517	      0.48474236	      0.88610658	     -1.00310060	      2.35313730	     -0.27266284	      2.85414480	      0.04981422	     19.86795390	     -3.71817794	      0.00000000	      0.65978245	     -1.10740357	     -2.77843798	      7.60387916	      0.13271273	     24.34819090	      1.37179092	      0.00000000	     -0.25873794	      0.39163697	     -2.29334872	     -0.48050223	      0.52087717	     -2.43668302	     -0.42508056	      0.95222614	     -2.43668302	     -0.29571159	      0.95222614	     -2.00668013	     -0.24026405	      0.79862612	     -1.86334584	     -0.14784286	      0.60664567	     -1.72001154	     -1.84813923	      4.43027577	    -12.75491760	      0.00000000	      0.00000000	     19.40999611	      0.27132419	      7.48137383	     -2.35697538	    -22.45913682	     19.27718588	     81.36622467	     88.87257612	    -11.01800622	     -1.07251364	     -2.62247460	    -13.88696513	     30.50298038	     64.44806967	     88.41245757	      3.83050484	     10.40041487
      6.16666667	     -2.12543622	     -8.70300760	     78.78941354	      0.24454121	      0.48475887	      0.88731429	     -0.83313432	      2.54590212	      0.71114409	      2.92094750	      0.05098015	     19.64026062	     -4.55162576	      0.00000000	      0.74896604	     -1.28374276	     -3.00507881	      7.68153840	      0.13406814	     24.46894937	      1.22770077	      0.00000000	     -0.26495185	      0.41304146	     -2.26256022	     -0.49204208	      0.54934514	     -2.40397023	     -0.43528939	      1.00426901	     -2.40397023	     -0.30281347	      1.00426901	     -1.97974019	     -0.24603429	      0.84227415	     -1.83833018	     -0.15139349	      0.63980122	     -1.69692016	     -1.89252455	      4.67240760	    -12.58368117	      0.00000000	      0.00000000	     19.29650951	     -0.09292216	      7.63012374	      0.75207394	    -23.34825859	     27.54483512	     73.80752904	     89.18309483	    -11.59126801	     -1.73721569	     -2.83319865	    -14.01665243	     30.10843446	     64.04047378	     88.73333015	      2.58271286	     10.35498284
      6.18518519	     -1.93575270	     -8.75276282	     78.54446777	      0.24493306	      0.48453259	      0.88833504	     -0.76113254	      2.79466745	      1.90320185	      2.75592597	      0.04809998	     19.54040885	     -5.54405346	      0.00000000	      0.88834445	     -1.51505360	     -3.33731744	      7.80309466	      0.13618969	     24.77973755	      1.30054346	      0.00000000	     -0.27010769	      0.44428197	     -2.19905605	     -0.50161699	      0.59089502	     -2.33649705	     -0.44375992	      1.08022717	     -2.33649705	     -0.30870608	      1.08022717	     -1.92417404	     -0.25082200	      0.90597979	     -1.78673304	     -0.15433953	      0.68819277	     -1.64929203	     -1.92935222	      5.02580647	    -12.23049001	      0.00000000	      0.00000000	     19.24607059	     -0.47859662	      7.88079621	      3.70822161	    -23.35619390	     35.26509435	     66.04700742	     89.22670020	    -11.07971500	      0.54808099	     -2.89098943	    -14.31614451	     30.50647885	     63.64732466	     88.97138224	      0.63856179	      9.33367864
